<?xml version="1.0" encoding="UTF-8"?>
<svg id="_레이어_2" data-name="레이어 2" xmlns="http://www.w3.org/2000/svg" viewBox="0 0 1089.48 216.96">
  <g>
    <g>
      <path fill="#fff" class="cls-1" d="m0,210.88c1.45-11.91,1.94-22.56,1.94-38.27v-78.07c0-17.49-.48-28.13-1.94-38.27h48.17v10.65c0,1.52-.24,5.32-.24,7.1,15.25-15.21,30.01-21.54,49.86-21.54,16.7,0,30.01,4.82,38.97,14.19,9.68,10.14,13.8,22.56,13.8,42.58v63.62c0,14.7.73,27.37,1.94,38.02h-50.35c1.45-12.17,1.94-22.81,1.94-38.27v-51.96c0-10.14-.97-14.45-3.87-18.76-3.15-4.56-8.71-7.1-15.97-7.1-13.56,0-25.66,8.87-36.07,26.61v51.2c0,14.45.48,25.09,1.94,38.27H0Z"/>
      <path fill="#fff" class="cls-1" d="m274.73,104.93c0-12.17-7.02-17.74-22.99-17.74s-23.72,5.32-27.35,17.74l-46.23-7.86c4.84-14.95,10.17-23.07,20.33-30.67,13.07-9.63,30.98-14.45,54.46-14.45,17.91,0,35.34,3.55,44.78,8.87,15.49,8.87,22.27,22.81,22.27,45.62v68.44c0,15.46.48,24.59,1.69,35.99h-46.96v-11.66c-13.55,10.9-27.11,15.21-46.96,15.21-18.4,0-32.19-4.56-41.87-13.94-8.71-8.36-13.31-20.53-13.31-34.47,0-15.97,6.05-28.64,17.67-37.01,12.34-9.12,28.56-14.45,50.35-16.48,9.44-1.01,16.7-1.27,34.13-1.77v-5.83Zm0,38.27c-21.54.51-31.95,1.77-41.88,5.07-8.71,3.04-14.04,9.38-14.04,16.73,0,9.12,7.26,14.45,19.85,14.45,9.92,0,20.82-3.8,27.35-9.63,5.57-5.07,8.71-11.91,8.71-19.52v-7.1Z"/>
      <path fill="#fff" class="cls-1" d="m397.94,56.27c-1.45,10.39-1.94,20.53-1.94,38.27v78.07c0,13.69.73,27.37,1.94,38.27h-50.59c1.45-12.42,1.94-22.05,1.94-38.27v-78.07c0-16.48-.48-26.87-1.94-38.27h50.59Zm-.73-56.27v38.02h-49.14V0h49.14Z"/>
      <path fill="#fff" class="cls-1" d="m423.59,210.88c1.45-11.91,1.94-22.56,1.94-38.27v-78.07c0-17.49-.48-28.13-1.94-38.27h48.17v10.65c0,1.52-.24,5.32-.24,7.1,15.25-15.21,30.01-21.54,49.86-21.54,16.7,0,30.01,4.82,38.97,14.19,9.68,10.14,13.8,22.56,13.8,42.58v63.62c0,14.7.73,27.37,1.94,38.02h-50.35c1.45-12.17,1.94-22.81,1.94-38.27v-51.96c0-10.14-.97-14.45-3.87-18.76-3.15-4.56-8.71-7.1-15.97-7.1-13.56,0-25.66,8.87-36.07,26.61v51.2c0,14.45.48,25.09,1.94,38.27h-50.1Z"/>
      <path fill="#fff" class="cls-1" d="m601.26,210.88c1.45-11.91,1.94-22.56,1.94-38.27V38.27c0-17.49-.48-28.39-1.94-38.27h50.1c-1.45,11.15-1.94,20.28-1.94,38.27v26.87c0,2.03-.24,6.08-.24,8.36,14.52-14.7,29.77-21.04,50.35-21.04,16.46,0,29.53,4.82,38.49,14.19,9.68,10.14,13.8,22.56,13.8,42.58v63.62c0,14.7.73,27.37,1.94,38.02h-50.35c1.45-12.17,1.94-22.81,1.94-38.27v-51.96c0-10.14-.97-14.7-3.87-19.01-3.39-4.56-8.71-6.84-15.49-6.84-13.8,0-26.87,9.63-36.55,26.36v51.45c0,14.45.48,25.09,1.94,38.27h-50.1Z"/>
      <path fill="#fff" class="cls-1" d="m817.17,147.77c2.42,20.53,13.8,31.43,32.92,31.43,9.68,0,18.15-3.29,24.45-9.38,3.63-3.55,5.33-6.34,7.26-12.93l42.12,12.42c-5.57,13.18-9.2,19.01-15.97,26.11-13.8,14.19-33.16,21.54-57.12,21.54s-42.36-7.1-56.16-21.54c-14.28-15.21-22.03-36.75-22.03-61.85,0-50.19,30.74-83.39,76.97-83.39,37.76,0,64.14,21.54,72.62,59.31,1.94,8.11,2.91,18.76,3.63,33.2,0,1.01,0,2.53.24,5.07h-108.92Zm62.93-34.98c-3.39-16.22-13.8-24.84-30.5-24.84s-27.59,8.11-31.71,24.84h62.21Z"/>
      <path fill="#fff" class="cls-1" d="m1042.53,104.93c0-12.17-7.02-17.74-22.99-17.74s-23.72,5.32-27.35,17.74l-46.23-7.86c4.84-14.95,10.17-23.07,20.33-30.67,13.07-9.63,30.98-14.45,54.46-14.45,17.91,0,35.34,3.55,44.78,8.87,15.49,8.87,22.27,22.81,22.27,45.62v68.44c0,15.46.48,24.59,1.69,35.99h-46.96v-11.66c-13.55,10.9-27.11,15.21-46.96,15.21-18.4,0-32.19-4.56-41.87-13.94-8.71-8.36-13.31-20.53-13.31-34.47,0-15.97,6.05-28.64,17.67-37.01,12.34-9.12,28.56-14.45,50.35-16.48,9.44-1.01,16.7-1.27,34.13-1.77v-5.83Zm0,38.27c-21.54.51-31.95,1.77-41.88,5.07-8.71,3.04-14.04,9.38-14.04,16.73,0,9.12,7.26,14.45,19.85,14.45,9.92,0,20.82-3.8,27.35-9.63,5.57-5.07,8.71-11.91,8.71-19.52v-7.1Z"/>
    </g>
  </g>
</svg>